<svg xmlns="http://www.w3.org/2000/svg" height="1200" width="1600" version="1.1" xmlns:xlink="http://www.w3.org/1999/xlink" xmlns:svgjs="http://svgjs.com/svgjs"><rect fill="#ffffff" width="1600" height="1200"></rect><g><path d="M957.1 546.91C923.88 588.44 867.31 603.35 812.53 628.33 757.35 653.14 703.96 688.02 660.24 677.79 616.23 667.67 581.9 612.44 566.17 556.73 550.83 501.2 554.09 445.19 570.29 386.96 586.09 328.55 614.95 268.21 662.59 245.12 710.23 222.03 776.65 236.19 837.95 262.9 899.08 290.02 954.98 329.39 977.86 383.2 1000.74 437.01 990.6 505.27 957.1 546.91Z" fill="#ffffff" opacity="1" stroke-width="4" stroke="#000000"></path></g><g><path d="M1043.3 810.75C1067.91 841.45 1099.63 841.61 1139.15 831.77 1139.15 831.77 1085.03 898.51 1120.15 915.62 1161.24 935.68 1245.86 890.94 1267.23 856.08 1288.3 821.65 1233.49 824.91 1194.29 863.47 1164.03 893.2 1129.43 947.87 1151.79 971.14 1185.89 1006.51 1309.26 935.86 1344 843.32" stroke="#000000" stroke-width="4" stroke-linecap="round" stroke-linejoin="round" opacity="1" fill="none"></path></g><g><path d="M175.71 708.96C188.71 647.45 223.94 573.48 287.86 587.87 369.02 606.22 388.01 783.3 339.96 778.5 298.83 774.35 307.04 600.23 405.81 616.64" stroke="#000000" stroke-width="4" stroke-linecap="round" stroke-linejoin="round" opacity="1" fill="none"></path></g><g><path d="M502.67 872.76C502.3 871.65 501.19 870.91 500.08 871.03L451.7 875.35 457.13 829.69C457.26 828.58 456.52 827.47 455.41 827.1 454.29 826.73 453.06 827.22 452.44 828.21L428.87 869.92 381.61 846.35C380.5 845.86 379.26 846.1 378.52 847.09 377.78 848.08 377.91 849.43 378.65 850.3L412.09 886.09 364.58 905.58C363.47 906.08 362.85 907.19 363.1 908.42 363.34 909.53 364.46 910.4 365.57 910.4L418.75 908.42 412.71 960.99C412.58 962.23 413.32 963.34 414.43 963.58 414.68 963.71 414.93 963.71 415.18 963.71 416.04 963.71 416.9 963.21 417.4 962.35L441.71 913.85 490.58 932.98C491.69 933.35 492.92 932.98 493.54 931.99 494.15 931.01 494.03 929.65 493.04 928.91L458.37 897.44 501.44 875.72C502.55 875.1 503.04 873.87 502.67 872.76Z" fill="#e0e0e0" opacity="1" stroke-width="4" stroke="#000000"></path></g><g><path d="M1342.42 448.44L1298.8 439.8 1318.17 399.82C1318.58 398.88 1318.37 397.84 1317.54 397.22 1316.71 396.59 1315.56 396.69 1314.83 397.42L1281.94 429.7 1249.35 390.14C1248.73 389.41 1247.58 389.2 1246.75 389.62 1245.92 390.14 1245.5 391.18 1245.81 392.11L1262.05 439.07 1214.16 445.21C1213.12 445.31 1212.39 446.15 1212.39 447.19 1212.39 448.23 1213.12 449.06 1214.06 449.27L1263.93 458.64 1242.69 499.87C1242.27 500.8 1242.48 501.84 1243.31 502.47 1244.15 503.09 1245.29 502.99 1246.02 502.26L1281 468.53 1318.06 507.57C1318.48 507.99 1319 508.19 1319.62 508.19 1320.04 508.19 1320.46 508.09 1320.77 507.78 1321.6 507.15 1321.91 506.11 1321.39 505.17L1298.49 459.16 1342.32 452.29C1343.36 452.18 1344.09 451.25 1344.09 450.31 1344.09 449.58 1343.36 448.64 1342.42 448.44Z" fill="#e0f5ff" opacity="1" stroke-width="4" stroke="#000000"></path></g><g><path d="M573.1 981.35C582.48 981.35 590.07 973.75 590.07 964.37 590.07 955 582.48 947.4 573.1 947.4 563.72 947.4 556.12 955 556.12 964.37 556.12 973.75 563.72 981.35 573.1 981.35Z" fill="#ffffff" opacity="1" stroke-width="4" stroke="#000000"></path></g><g><path d="M1338.9 723.3C1355.14 723.3 1368.3 710.15 1368.3 693.91 1368.3 677.68 1355.14 664.52 1338.9 664.52 1322.67 664.52 1309.51 677.68 1309.51 693.91 1309.51 710.15 1322.67 723.3 1338.9 723.3Z" fill="#e0e0e0" opacity="1" stroke-width="4" stroke="#000000"></path></g><g><path d="M1273.93 631.86C1282.6 631.86 1289.64 624.82 1289.64 616.14 1289.64 607.46 1282.6 600.43 1273.93 600.43 1265.25 600.43 1258.21 607.46 1258.21 616.14 1258.21 624.82 1265.25 631.86 1273.93 631.86Z" fill="#ffffff" opacity="1" stroke-width="4" stroke="#000000"></path></g><g><path d="M401.62 528.08C415.26 528.08 426.3 517.04 426.3 503.4 426.3 489.77 415.26 478.73 401.62 478.73 387.99 478.73 376.95 489.77 376.95 503.4 376.95 517.04 387.99 528.08 401.62 528.08Z" fill="#ffffff" opacity="1" stroke-width="4" stroke="#000000"></path></g><g><path d="M310.15 472.23C319.26 472.23 326.65 464.84 326.65 455.73 326.65 446.62 319.26 439.23 310.15 439.23 301.04 439.23 293.65 446.62 293.65 455.73 293.65 464.84 301.04 472.23 310.15 472.23Z" fill="#fae2db" opacity="1" stroke-width="4" stroke="#000000"></path></g><g><path d="M698.27 167.94C707.74 167.94 715.43 160.25 715.43 150.77 715.43 141.29 707.74 133.61 698.27 133.61 688.78 133.61 681.1 141.29 681.1 150.77 681.1 160.25 688.78 167.94 698.27 167.94Z" fill="#e0e0e0" opacity="1" stroke-width="4" stroke="#000000"></path></g><g><path d="M1166.06 280.19C1184.05 207.77 1182.06 144.93 1161.62 139.86 1141.17 134.78 1110.01 189.37 1092.03 261.79 1074.03 334.22 1076.02 397.04 1096.46 402.12 1116.91 407.2 1148.06 352.61 1166.06 280.19Z" stroke="#000000" stroke-width="4" stroke-linecap="round" stroke-linejoin="round" opacity="1" fill="none"></path><path d="M1225.75 364.62C1240.37 349.45 1208.67 295.18 1154.95 243.39 1101.23 191.6 1045.82 161.91 1031.21 177.07 1016.59 192.24 1048.29 246.51 1102.01 298.31 1155.73 350.1 1211.13 379.78 1225.75 364.62Z" stroke="#000000" stroke-width="4" stroke-linecap="round" stroke-linejoin="round" opacity="1" fill="none"></path><path d="M1139.57 307.59C1211.28 286.96 1264.7 253.82 1258.87 233.58 1253.05 213.33 1190.2 213.65 1118.48 234.28 1046.77 254.92 993.36 288.06 999.18 308.29 1005 328.54 1067.86 328.22 1139.57 307.59Z" stroke="#000000" stroke-width="4" stroke-linecap="round" stroke-linejoin="round" opacity="1" fill="none"></path><path d="M1129.04 292.19C1140.76 292.19 1150.28 282.68 1150.28 270.95 1150.28 259.22 1140.76 249.71 1129.04 249.71 1117.3 249.71 1107.8 259.22 1107.8 270.95 1107.8 282.68 1117.3 292.19 1129.04 292.19Z" fill="#e0e0e0" opacity="1" stroke-width="4" stroke="#000000"></path><path d="M1040.65 233.62C1046.73 233.62 1051.67 228.69 1051.67 222.6 1051.67 216.51 1046.73 211.57 1040.65 211.57 1034.55 211.57 1029.62 216.51 1029.62 222.6 1029.62 228.69 1034.55 233.62 1040.65 233.62Z" fill="#e0f5ff" opacity="1" stroke-width="4" stroke="#000000"></path><path d="M1232.43 279.27C1238.51 279.27 1243.46 274.33 1243.46 268.24 1243.46 262.15 1238.51 257.21 1232.43 257.21 1226.34 257.21 1221.4 262.15 1221.4 268.24 1221.4 274.33 1226.34 279.27 1232.43 279.27Z" fill="#e0f5ff" opacity="1" stroke-width="4" stroke="#000000"></path><path d="M1079.69 375.16C1085.77 375.16 1090.72 370.22 1090.72 364.13 1090.72 358.04 1085.77 353.1 1079.69 353.1 1073.6 353.1 1068.66 358.04 1068.66 364.13 1068.66 370.22 1073.6 375.16 1079.69 375.16Z" fill="#e0f5ff" opacity="1" stroke-width="4" stroke="#000000"></path></g><g><path d="M910.67 299.82L864.57 265.72 904.57 232.82C905.27 232.22 905.47 231.22 905.07 230.42 904.67 229.62 903.67 229.12 902.77 229.42L854.47 241.32 847.57 191.92C847.47 191.02 846.67 190.22 845.77 190.22 844.77 190.12 843.97 190.72 843.67 191.72L829.37 242.92 765.67 226.42C764.67 226.22 763.77 226.62 763.37 227.52 762.97 228.42 763.27 229.52 764.07 230.02L815.47 263.12 762.77 306.32C761.97 306.92 761.77 308.02 762.27 308.92 762.77 309.72 763.77 310.12 764.77 309.72L826.57 284.82 835.17 330.72C835.37 331.62 836.17 332.32 837.07 332.32 837.07 332.32 837.07 332.32 837.17 332.32 838.07 332.32 838.87 331.72 839.07 330.82L850.67 286.02 908.77 303.42C909.67 303.72 910.67 303.22 911.17 302.42 911.67 301.42 911.47 300.42 910.67 299.82Z" fill="#a8a8a8" opacity="1" stroke-width="4" stroke="#000000"></path><path d="M800.17 188.02L789.87 170.52" stroke="#000000" stroke-width="4" stroke-linecap="round" stroke-linejoin="round" opacity="1" fill="none"></path><path d="M878.57 206.62L884.67 197.32" stroke="#000000" stroke-width="4" stroke-linecap="round" stroke-linejoin="round" opacity="1" fill="none"></path><path d="M898.07 335.42L908.37 345.72" stroke="#000000" stroke-width="4" stroke-linecap="round" stroke-linejoin="round" opacity="1" fill="none"></path><path d="M760.07 264.32H738.37" stroke="#000000" stroke-width="4" stroke-linecap="round" stroke-linejoin="round" opacity="1" fill="none"></path></g><g><path d="M370.46 174.94H654.33C662.12 174.94 668.48 181.25 668.48 189.09V385.85C668.48 393.64 662.17 400 654.33 400H370.46C362.67 400 356.31 393.69 356.31 385.85V189.09C356.31 181.25 362.62 174.94 370.46 174.94Z" fill="#e0f5ff" opacity="1" stroke-width="4" stroke="#000000"></path><path d="M528.89 331.53L458.48 209.71 384.82 331.53 458.48 369.66 528.89 331.53Z" stroke="#000000" stroke-width="4" stroke-linecap="round" stroke-linejoin="round" opacity="1" fill="none"></path><path d="M528.89 331.53L445.2 305.01 384.82 331.53" stroke="#000000" stroke-width="4" stroke-linecap="round" stroke-linejoin="round" opacity="1" fill="none"></path><path d="M458.48 209.71V369.66" stroke="#000000" stroke-width="4" stroke-linecap="round" stroke-linejoin="round" opacity="1" fill="none"></path><path d="M445.55 303.79L456.85 213.73" stroke="#000000" stroke-width="4" stroke-linecap="round" stroke-linejoin="round" opacity="1" fill="none"></path><path d="M519.37 222.33L528.64 243.51 537.95 222.33" stroke="#000000" stroke-width="4" stroke-linecap="round" stroke-linejoin="round" opacity="1" fill="none"></path><path d="M563.61 213.32L569.77 209.05 568.85 226.61" stroke="#000000" stroke-width="4" stroke-linecap="round" stroke-linejoin="round" opacity="1" fill="none"></path><path d="M562.64 256.03C570.74 259.39 575.47 250.74 571.09 247.13 568.29 244.84 564.37 246.67 564.37 246.67L572.93 239.03C567.38 241.58 563.41 239.03 563.41 239.03" stroke="#000000" stroke-width="4" stroke-linecap="round" stroke-linejoin="round" opacity="1" fill="none"></path><path d="M557.45 232.82H577.86" stroke="#000000" stroke-width="4" stroke-linecap="round" stroke-linejoin="round" opacity="1" fill="none"></path><path d="M543.2 230.53H549.81" stroke="#000000" stroke-width="4" stroke-linecap="round" stroke-linejoin="round" opacity="1" fill="none"></path><path d="M542.69 235.32H549.36" stroke="#000000" stroke-width="4" stroke-linecap="round" stroke-linejoin="round" opacity="1" fill="none"></path><path d="M592.22 221.72C587.13 221.72 584.58 225.29 585.96 228.19 587.64 231.85 593.75 230.84 594.77 236.44 595.89 242.49 588.3 247.02 583.57 241.73" stroke="#000000" stroke-width="4" stroke-linecap="round" stroke-linejoin="round" opacity="1" fill="none"></path><path d="M613.04 221.72L610.19 244.07C610.19 244.07 613.5 230.78 618.29 232.21 622.61 233.48 617.06 242.9 620.68 244.07 622.1 244.53 624.95 242.19 624.95 242.19" stroke="#000000" stroke-width="4" stroke-linecap="round" stroke-linejoin="round" opacity="1" fill="none"></path><path d="M602.55 234.3C603.34 234.3 603.98 233.66 603.98 232.87 603.98 232.08 603.34 231.45 602.55 231.45 601.77 231.45 601.13 232.08 601.13 232.87 601.13 233.66 601.77 234.3 602.55 234.3Z" fill="#e0e0e0" opacity="1" stroke-width="4" stroke="#000000"></path></g><g><path d="M751.35 875.06C757.5 875.06 762.56 880.03 762.56 886.18L762.47 915.29V1035.71C762.47 1041.86 757.5 1046.83 751.35 1046.83 745.2 1046.83 740.23 1041.86 740.23 1035.71V886.18C740.14 880.03 745.11 875.06 751.35 875.06Z" fill="#ffffff" opacity="1" stroke-width="4" stroke="#000000"></path><path d="M751.35 875.06C745.11 875.06 740.14 880.03 740.23 886.18V925.42L762.47 915.29 762.56 886.18C762.47 880.03 757.5 875.06 751.35 875.06Z" fill="#ffffff00" opacity="0" stroke-width="4" stroke="#ffffff00"></path><path d="M829.37 1061.75C827.83 1060.39 751.98 994.12 751.98 994.12H750.62C750.62 994.12 674.77 1060.39 673.24 1061.75 671.34 1062.83 669.26 1068.17 672.24 1071.6 674.59 1074.49 678.75 1075.22 681.92 1073.14 682.1 1073.05 723.59 1044.57 748.45 1027.48 750.17 1026.31 752.34 1026.31 754.06 1027.48 778.92 1044.57 820.51 1073.05 820.6 1073.14 823.85 1075.22 828.1 1074.4 830.27 1071.6 833.35 1068.08 831.27 1062.83 829.37 1061.75Z" fill="#a8a8a8" opacity="1" stroke-width="4" stroke="#000000"></path><path d="M733.27 989.78H769.34C771.51 989.78 773.23 991.5 773.23 993.67V1013.02H729.29V993.67C729.38 991.5 731.1 989.78 733.27 989.78Z" fill="#36393a" opacity="1" stroke-width="4" stroke="#000000"></path><path d="M729.38 868.01H773.32V898.11C773.32 899.65 772.05 901.01 770.42 901.01H732.18C730.65 901.01 729.38 899.74 729.38 898.11V868.01Z" fill="#36393a" opacity="1" stroke-width="4" stroke="#000000"></path><path d="M686.35 850.11H816.26C824.94 850.11 831.9 857.16 831.9 865.75 831.9 874.43 824.85 881.39 816.26 881.39H686.35C677.67 881.39 670.71 874.34 670.71 865.75 670.71 857.16 677.76 850.11 686.35 850.11Z" fill="#a8a8a8" opacity="1" stroke-width="4" stroke="#000000"></path></g><g><path d="M988.44 1034.96L928.75 1017.21C928.75 1017.21 928.65 1017.21 928.65 1017.11 925.38 1002.14 922.01 984.09 919.03 963.17 919.03 963.07 919.03 963.07 919.13 963.07L979.72 957.42 1015.12 962.87C1015.12 962.87 1015.22 962.87 1015.22 962.97 1016.5 972.29 1018.78 981.71 1021.96 990.54V990.63L988.54 1034.96C988.54 1034.96 988.54 1034.96 988.44 1034.96Z" fill="#e1f0f4" opacity="1" stroke-width="4" stroke="#000000"></path><path d="M780.51 724H826.32C826.52 724 936.68 731.24 976.54 771 1015.51 809.87 1005.7 902.88 1015.31 963.07 1015.31 963.17 1015.31 963.17 1015.22 963.17 1011.65 963.17 922.3 963.17 919.23 963.17 919.13 963.17 919.13 963.17 919.13 963.07 916.95 947.1 915.36 932.53 914.17 916.96 911.4 879.38 912.39 851.61 912.39 849.73 912.39 849.63 912.39 849.63 912.29 849.63 909.12 849.63 841.19 849.63 839.8 849.63 765.93 842.49 768.31 768.02 780.51 724 780.41 724 780.41 724 780.51 724Z" fill="#e0e0e0" opacity="1" stroke-width="4" stroke="#000000"></path><path d="M979.52 1002.43C978.63 996.29 983.58 990.44 989.83 990.54H1021.86C1021.86 990.54 1021.96 990.54 1021.96 990.63 1023.64 995.29 1025.92 999.86 1028.7 1003.92 1041.99 1024.15 1069.95 1030.4 1080.86 1052.81 1080.86 1052.91 1080.86 1052.91 1080.76 1052.91 1078.48 1053.5 1040.7 1062.62 1039.81 1062.62 1025.53 1062.62 940.05 1053.3 937.48 1053 937.48 1053 937.38 1053 937.38 1052.91 934.9 1043.98 931.62 1032.18 928.35 1017.31 928.35 1017.21 928.35 1017.21 928.45 1017.21H980.51C981.01 1017.21 981.5 1016.71 981.4 1016.22L979.52 1002.43Z" fill="#e0f5ff" opacity="1" stroke-width="4" stroke="#000000"></path><path d="M1083.63 1072.24L1083.54 1072.34H943.92C943.92 1072.34 943.82 1072.34 943.82 1072.24 943.52 1071.55 941.14 1065.1 937.57 1053 937.57 1052.91 937.57 1052.91 937.67 1052.91H1080.86C1080.96 1052.91 1081.06 1053 1081.06 1053 1083.24 1059.05 1083.63 1063.91 1083.63 1072.24Z" fill="#e0e0e0" opacity="1" stroke-width="4" stroke="#000000"></path><path d="M929.44 797.47C983.58 797.47 958.89 876.21 955.82 963.07 952.65 1024.84 981.9 1013.64 1003.22 1053.1 1005.6 1059.25 1006.49 1065.9 1005.8 1072.54H954.23C954.23 1072.54 951.75 1065.99 947.89 1053.1 936.68 1014.83 927.46 961.48 924.39 918.15 921.41 878.59 922.5 849.63 922.5 849.63 922.5 849.63 848.43 797.47 929.44 797.47Z" fill="#e0e0e000" opacity="0" stroke-width="4" stroke="#ffffff00"></path><path d="M845.95 1017.11C843.57 1000.95 841.19 982.7 839.9 963.17 839.9 963.07 839.9 963.07 840 963.07L889.19 953.45 941.54 963.07 941.64 963.17C941.24 973.08 941.24 982.01 941.74 990.44 941.74 990.44 941.74 990.44 941.74 990.54L916.26 1040.51C916.26 1040.51 916.26 1040.61 916.16 1040.61 910.21 1040.51 848.03 1018 845.95 1017.11 845.95 1017.21 845.95 1017.21 845.95 1017.11Z" fill="#e1f0f4" opacity="1" stroke-width="4" stroke="#000000"></path><path d="M898.51 1017.11C899.3 1017.11 899.8 1016.42 899.7 1015.62L897.71 1002.24C896.82 996.09 901.78 990.24 908.03 990.34H941.64C941.74 990.34 941.74 990.34 941.74 990.44 941.94 994.4 942.33 998.17 942.83 1001.74 946.2 1026.03 982.99 1029.9 993 1052.81 993 1052.91 993 1052.91 992.9 1052.91 989.33 1053.2 917.64 1059.65 917.15 1059.75L851.8 1052.91C851.8 1052.91 851.7 1052.91 851.7 1052.81 849.92 1043.49 847.94 1031.39 845.85 1017.31 845.85 1017.21 845.85 1017.21 845.95 1017.21 848.33 1017.21 890.18 1017.31 898.51 1017.11Z" fill="#e0f5ff" opacity="1" stroke-width="4" stroke="#000000"></path><path d="M676.79 724H803.91C804.21 724 891.86 732.23 930.53 771 963.06 802.63 943.52 904.27 941.64 963.07 941.64 963.17 941.64 963.17 941.54 963.17 938.27 963.17 843.18 963.17 840 963.17 839.9 963.17 839.9 963.17 839.9 963.07 838.61 946.61 838.32 932.13 838.22 916.86 838.02 875.61 841.59 852.8 841.79 850.92 841.79 850.82 841.79 850.82 841.69 850.82 837.52 850.82 737.28 850.82 735.89 850.82 662.21 841.7 664.49 769.41 676.79 724 676.69 724 676.69 724 676.79 724Z" fill="#e0e0e0" opacity="1" stroke-width="4" stroke="#000000"></path><path d="M995.78 1072.24C995.78 1072.34 995.78 1072.34 995.68 1072.34H856.07C856.07 1072.34 855.97 1072.34 855.97 1072.24 855.77 1071.45 854.08 1064.41 851.8 1053 851.8 1052.91 851.8 1052.91 851.9 1052.91 856.36 1052.91 986.36 1052.91 992.81 1052.91 993 1052.91 993.1 1053 993.2 1053.1 996.18 1057.57 996.47 1065.7 995.78 1072.24Z" fill="#e0e0e0" opacity="1" stroke-width="4" stroke="#000000"></path><path d="M619.28 601.24C619.97 597.18 620.86 593.7 622.05 590.83 625.92 579.62 632.86 569.81 644.46 562.87 657.16 555.63 676.69 553.25 676.89 553.25L766.53 554.64C785.27 562.67 797.76 581.51 803.61 591.62 823.15 625.34 826.32 640.9 837.92 669.16L838.02 669.26C855.67 664.11 874.21 658.26 895.93 652.01 895.93 652.01 896.03 652.01 896.03 652.11L911.1 687.21V725.49C911.1 725.49 911.1 725.58 911 725.58 882.54 735 855.57 739.86 830.98 739.86 825.03 739.86 819.28 739.47 813.53 739.17 806.09 738.08 793.99 737.19 779.71 736.49 779.62 736.49 779.62 736.49 779.62 736.59L777.83 769.21C777.83 769.21 777.83 769.31 777.73 769.31 761.27 773.58 725.97 776.95 697.61 776.95 671.14 776.95 652.99 774.17 646.74 769.12 615.11 747.8 610.65 657.96 619.28 601.24Z" fill="#e0f5ff" opacity="1" stroke-width="4" stroke="#000000"></path><path d="M841.69 850.72H794.89C794.79 850.72 794.79 850.52 794.89 850.52 818.98 844.08 829.69 819.49 847.44 819.39 847.54 819.39 847.54 819.49 847.54 819.49 843.97 837.73 841.99 849.63 841.69 850.72 841.79 850.72 841.79 850.72 841.69 850.72Z" fill="#e0e0e000" opacity="0" stroke-width="4" stroke="#ffffff00"></path><path d="M868.86 736.39C884.23 742.94 919.83 760.19 930.53 771 955.72 796.19 949.77 859.65 944.81 918.15 943.52 933.72 942.33 948.99 941.64 963.17" stroke="#000000" stroke-width="4" stroke-linecap="round" stroke-linejoin="round" opacity="1" fill="none"></path><path d="M841.89 849.63C843.67 841.5 847.64 819.49 847.64 819.49" stroke="#000000" stroke-width="4" stroke-linecap="round" stroke-linejoin="round" opacity="1" fill="none"></path><path d="M1041.49 1017.41L1029.39 1024.55" stroke="#000000" stroke-width="4" stroke-linecap="round" stroke-linejoin="round" opacity="1" fill="none"></path><path d="M1051.31 1024.55L1040.7 1034.96" stroke="#000000" stroke-width="4" stroke-linecap="round" stroke-linejoin="round" opacity="1" fill="none"></path><path d="M952.35 1018.3L941.84 1024.55" stroke="#000000" stroke-width="4" stroke-linecap="round" stroke-linejoin="round" opacity="1" fill="none"></path><path d="M962.36 1025.84L953.14 1034.96" stroke="#000000" stroke-width="4" stroke-linecap="round" stroke-linejoin="round" opacity="1" fill="none"></path><path d="M768.61 520.23C759.78 531.14 739.95 528.66 739.95 528.66L741.64 538.97 743.32 547.6 724.68 594.6 682.44 553.94 674.31 538.97 672.92 524.29 671.53 486.42C668.56 465.79 666.18 441.3 687.2 428.51 710.6 414.13 740.15 418.69 751.85 430.19 758.49 436.74 761.97 443.78 764.05 453.5 765.63 460.93 766.43 468.27 767.72 473.82 768.71 478.19 770.49 483.44 771.88 488.89 774.66 499.5 776.24 511.11 768.61 520.23Z" fill="#e1f0f4" opacity="1" stroke-width="4" stroke="#000000"></path><path d="M739.95 528.66L741.64 538.97 742.33 545.51 721.71 524.19 739.95 528.66Z" fill="#e1f0f400" opacity="0" stroke-width="4" stroke="#ffffff00"></path><path d="M682.14 425.83C699.69 413.73 737.67 413.34 752.64 426.33 760.87 433.27 763.85 451.91 764.05 453.3 764.05 453.4 764.05 453.4 763.95 453.4 760.08 453.89 756.02 453.69 750.36 450.42 750.26 450.42 750.26 450.42 750.26 450.52 749.07 456.27 741.54 464.8 728.35 461.33 728.25 461.33 728.25 461.33 728.25 461.43 729.14 469.76 725.38 474.62 720.91 478.68V478.78C721.11 479.57 723.39 490.88 723.39 490.88 724.88 497.92 732.02 502.08 738.86 499.8L771.88 488.89C771.98 488.89 771.98 488.89 771.98 488.99 775.55 499.11 778.72 515.87 771.19 524.99 762.36 535.9 741.34 533.61 741.34 533.61 741.34 533.61 734.7 532.62 727.46 530.64 718.24 528.16 710.5 515.07 711.3 505.55L713.48 480.17V480.07C709.61 476.4 701.18 469.46 693.45 469.46 690.08 469.46 687.1 470.85 684.82 473.43 672.13 487.61 693.74 508.53 694.34 509.82V509.92C689.38 517.06 681.75 522.41 673.12 524.19 673.02 524.19 673.02 524.19 673.02 524.1 670.74 496.23 652.1 444.57 682.14 425.83Z" fill="#fffafa" opacity="1" stroke-width="4" stroke="#000000"></path><path d="M703.86 495.44L694.64 486.91" stroke="#000000" stroke-width="4" stroke-linecap="round" stroke-linejoin="round" opacity="1" fill="none"></path><path d="M724.68 529.65C724.68 529.65 731.23 532.92 740.84 533.61" stroke="#000000" stroke-width="4" stroke-linecap="round" stroke-linejoin="round" opacity="1" fill="none"></path><path d="M757.5 503.27C755.12 505.55 750.66 505.45 748.78 503.27" stroke="#000000" stroke-width="4" stroke-linecap="round" stroke-linejoin="round" opacity="1" fill="none"></path><path d="M753.04 490.38C754.53 489.39 754.73 488.8 754.93 487.9 755.22 486.51 754.43 484.93 753.54 483.44" stroke="#000000" stroke-width="4" stroke-linecap="round" stroke-linejoin="round" opacity="1" fill="none"></path><path d="M737.28 486.42C735.63 486.42 734.3 485.08 734.3 483.44 734.3 481.79 735.63 480.47 737.28 480.47 738.92 480.47 740.25 481.79 740.25 483.44 740.25 485.08 738.92 486.42 737.28 486.42Z" fill="#17151c" opacity="1" stroke-width="4" stroke="#000000"></path><path d="M760.58 479.28C758.93 479.28 757.6 477.94 757.6 476.3 757.6 474.66 758.93 473.33 760.58 473.33 762.22 473.33 763.55 474.66 763.55 476.3 763.55 477.94 762.22 479.28 760.58 479.28Z" fill="#17151c" opacity="1" stroke-width="4" stroke="#000000"></path><path d="M954.43 707.54L977.54 658.75C977.54 658.75 974.76 652.51 960.78 653 960.68 653 960.68 652.9 960.78 652.8 965.04 651.32 971.19 647.45 972.28 642.99 976.44 628.31 926.27 644.18 896.03 652.01 895.93 652.01 895.93 652.11 895.93 652.11 896.52 654.79 910.31 722.31 911 725.49 911 725.58 911.1 725.58 911.1 725.58 913.58 724.59 952.94 708.13 954.43 707.54Z" fill="#e1f0f4" opacity="1" stroke-width="4" stroke="#000000"></path><path d="M818.39 726.87C812.83 718.05 789.93 667.58 787.25 661.83 787.25 661.73 787.05 661.73 787.05 661.93L792.8 710.71 818.39 726.87Z" fill="#e0f5ff00" opacity="0" stroke-width="4" stroke="#ffffff00"></path><path d="M766.43 554.64C761.97 552.36 751.06 548.39 743.32 547.6L723.69 546.7 676.79 552.36C669.15 553.45 653.39 557.31 644.56 562.77 644.46 562.77 644.46 562.87 644.56 562.97L738.37 636.74C738.46 636.74 738.46 636.74 738.56 636.74L766.53 554.74C766.53 554.64 766.53 554.64 766.43 554.64Z" fill="#a8a8a8" opacity="1" stroke-width="4" stroke="#000000"></path><path d="M721.11 548.69L738.76 566.34C738.86 566.44 738.96 566.34 738.96 566.34L743.42 547.7 741.74 539.17 741.64 539.07 674.51 539.07C674.41 539.07 674.41 539.17 674.41 539.17 675.1 545.51 675.9 551.86 676 552.55 676 552.55 676 552.65 676.09 552.65L712.68 568.92C712.78 568.92 712.78 568.92 712.78 568.82L721.11 548.79C721.01 548.69 721.11 548.69 721.11 548.69Z" fill="#e0e0e0" opacity="1" stroke-width="4" stroke="#000000"></path><path d="M787.15 661.93L792.9 710.71" stroke="#000000" stroke-width="4" stroke-linecap="round" stroke-linejoin="round" opacity="1" fill="none"></path><path d="M849.52 665.79L838.02 669.26" stroke="#000000" stroke-width="4" stroke-linecap="round" stroke-linejoin="round" opacity="1" fill="none"></path><path d="M933.11 741.95L1004.01 609.27 902.77 609.27 831.97 741.95 933.11 741.95Z" fill="#a8a8a8" opacity="1" stroke-width="4" stroke="#000000"></path><path d="M940.25 726.87C949.77 726.58 970.1 719.83 964.45 708.33 971.49 705.36 970.49 697.32 970.49 697.23 976.84 693.56 976.05 686.42 973.57 683.15 983.78 677.49 981.6 663.21 977.54 658.75 974.26 663.31 964.74 661.83 961.17 661.63 960.08 662.22 930.43 653.7 937.97 673.23 928.65 673.43 921.41 683.24 930.93 690.48 928.35 691.28 920.32 695.94 923.89 702.58 926.96 708.43 937.87 708.93 944.22 708.83 944.61 708.83 944.81 709.32 944.42 709.52 941.34 711.11 934.9 714.98 934 718.84 932.42 723.7 934.3 726.97 940.25 726.87Z" fill="#e1f0f4" opacity="1" stroke-width="4" stroke="#000000"></path><path d="M964.45 708.33C957.31 710.31 944.52 709.32 944.52 709.32" stroke="#000000" stroke-width="4" stroke-linecap="round" stroke-linejoin="round" opacity="1" fill="none"></path><path d="M970.49 697.23C947.19 696.23 930.93 690.48 930.93 690.48" stroke="#000000" stroke-width="4" stroke-linecap="round" stroke-linejoin="round" opacity="1" fill="none"></path><path d="M973.57 683.24C965.54 683.24 944.02 678.29 937.97 673.23" stroke="#000000" stroke-width="4" stroke-linecap="round" stroke-linejoin="round" opacity="1" fill="none"></path><path d="M781.2 708.23L781.3 708.13C818.09 709.72 840.1 715.77 861.82 730.84 875.5 740.26 902.47 769.81 904.06 781.11 904.75 784.58 901.48 786.86 898.51 786.86 892.66 786.86 886.41 776.16 884.72 778.24 883.73 779.63 897.12 808.38 880.16 804.02H880.06C870.15 817.01 853.59 790.93 849.52 785.58 849.22 785.18 848.63 785.48 848.73 785.97 850.22 790.83 858.25 807.79 849.13 808.98 841.99 808.98 826.91 781.01 826.12 779.63 826.12 779.63 826.12 779.63 826.02 779.63 804.31 777.64 794.39 769.91 793.99 769.51 793.5 769.51 783.98 769.41 777.93 769.31 777.93 769.31 777.93 769.21 777.83 769.21L779.62 736.59C779.62 736.59 781.2 708.23 781.2 708.23Z" fill="#e1f0f4" opacity="1" stroke-width="4" stroke="#000000"></path><path d="M884.72 778.24C877.58 765.05 867.27 750.97 867.27 750.97" stroke="#000000" stroke-width="4" stroke-linecap="round" stroke-linejoin="round" opacity="1" fill="none"></path><path d="M880.06 804.12C872.03 787.96 858.25 768.32 851.21 760.29" stroke="#000000" stroke-width="4" stroke-linecap="round" stroke-linejoin="round" opacity="1" fill="none"></path><path d="M848.73 784.88C845.65 779.82 838.91 771.3 838.91 771.3" stroke="#000000" stroke-width="4" stroke-linecap="round" stroke-linejoin="round" opacity="1" fill="none"></path><path d="M695.83 658.45L726.57 707.64C718.14 707.84 710.11 708.13 702.37 708.53 701.58 708.53 700.78 707.93 700.78 707.14 700.29 701.59 698.41 681.06 694.74 658.95 694.54 658.26 695.43 657.86 695.83 658.45Z" fill="#e0f5ff00" opacity="0" stroke-width="4" stroke="#ffffff00"></path><path d="M695.33 658.16L700.88 708.63" stroke="#000000" stroke-width="4" stroke-linecap="round" stroke-linejoin="round" opacity="1" fill="none"></path><path d="M781.2 708.23C731.62 706.25 700.88 708.63 700.88 708.63" stroke="#000000" stroke-width="4" stroke-linecap="round" stroke-linejoin="round" opacity="1" fill="none"></path><path d="M726.76 584.19C723.42 584.19 720.72 581.48 720.72 578.14 720.72 574.8 723.42 572.09 726.76 572.09 730.11 572.09 732.81 574.8 732.81 578.14 732.81 581.48 730.11 584.19 726.76 584.19Z" fill="#000000" opacity="1" stroke-width="4" stroke="#000000"></path></g><g><path d="M536.89 663.65C536.89 663.65 542.87 647.38 540.28 641.41 530.32 645.01 519.35 644.9 509.39 641.29 507.21 648.88 516.83 668.01 516.83 668.01L536.89 663.65Z" fill="#444444" opacity="1" stroke-width="4" stroke="#000000"></path><path d="M553.8 640.24C543.85 637.61 533.1 642.53 524.76 652.27 516.42 642.57 505.67 637.65 495.71 640.24 479.25 644.56 471.1 667.9 477.52 692.28 483.95 716.67 502.51 732.98 518.97 728.62 521 728.09 522.95 727.23 524.76 726.14 526.56 727.27 528.51 728.09 530.54 728.62 547 732.94 565.56 716.67 571.99 692.25 578.41 667.82 570.26 644.6 553.8 640.24Z" fill="#a8a8a8" opacity="1" stroke-width="4" stroke="#000000"></path><path d="M536.37 686.48C538.72 683.47 539.47 680.13 538.04 679.02 536.62 677.91 533.56 679.45 531.22 682.47 528.87 685.48 528.12 688.82 529.54 689.93 530.97 691.04 534.03 689.5 536.37 686.48Z" fill="#161616" opacity="1" stroke-width="4" stroke="#000000"></path><path d="M520.03 689.93C521.45 688.82 520.7 685.48 518.35 682.47 516.01 679.45 512.95 677.91 511.53 679.02 510.1 680.13 510.85 683.47 513.2 686.48 515.54 689.5 518.6 691.04 520.03 689.93Z" fill="#161616" opacity="1" stroke-width="4" stroke="#000000"></path><path d="M519.01 622.47C525.47 626.57 527.39 635.13 527.54 635.73 527.54 635.77 527.54 635.77 527.5 635.77 526.9 635.92 518.33 637.76 511.87 633.63 505.41 629.5 503.49 620.93 503.34 620.37 503.34 620.33 503.34 620.33 503.38 620.33 503.94 620.18 512.58 618.34 519.01 622.47Z" fill="#090909" opacity="1" stroke-width="4" stroke="#000000"></path><path d="M519.01 622.47C525.32 626.49 527.31 634.76 527.54 635.7 527.54 635.73 527.5 635.73 527.46 635.73L503.41 620.4C503.38 620.4 503.38 620.33 503.41 620.33 504.35 620.1 512.73 618.45 519.01 622.47Z" fill="#36393a00" opacity="0" stroke-width="4" stroke="#ffffff00"></path><path d="M524.61 652C524.61 652 524.61 638.21 532.87 626.83" stroke="#000000" stroke-width="4" stroke-linecap="round" stroke-linejoin="round" opacity="1" fill="none"></path><path d="M573.27 665.42C573.27 665.38 573.19 665.38 573.19 665.42 569.4 683.9 554.44 701.68 532.5 710.81 517.54 717.05 502.02 718.14 488.65 714.94 488.61 714.94 488.57 714.98 488.61 715.02 497.14 725.8 508.49 731.4 518.97 728.62 521 728.09 522.95 727.23 524.76 726.14 526.56 727.27 528.51 728.09 530.54 728.62 547 732.94 565.56 716.67 571.99 692.25 574.51 682.78 574.77 673.46 573.27 665.42Z" fill="#a8a8a800" opacity="0" stroke-width="4" stroke="#ffffff00"></path></g><g><path d="M1157.74 718.28L1117.71 650.78V610.31H1121.79C1125.54 609.87 1128.51 606.89 1128.51 603.25V602.81C1128.51 599.17 1125.54 596.2 1121.9 596.2H1088.48C1084.84 596.2 1081.86 599.17 1081.86 602.81V603.25C1081.86 606.89 1084.84 609.87 1088.37 610.31H1092.56V650.78L1052.64 718.28C1050.54 721.91 1051.76 726.33 1055.18 728.53 1056.28 729.19 1057.6 729.52 1058.93 729.52H1151.12C1155.31 729.52 1158.62 726.11 1158.62 722.03 1158.73 720.7 1158.4 719.38 1157.74 718.28Z" fill="#ffffff" opacity="1" stroke-width="4" stroke="#000000"></path><path d="M1157.52 718.28L1139.21 687.18C1092.89 726 1107.78 669.09 1074.7 681L1052.64 718.28C1050.54 721.91 1051.76 726.33 1055.18 728.53 1056.28 729.19 1057.6 729.52 1058.93 729.52H1151.12C1155.31 729.52 1158.62 726.11 1158.62 722.03 1158.62 720.7 1158.29 719.38 1157.52 718.28Z" fill="#a8a8a8" opacity="1" stroke-width="4" stroke="#000000"></path></g><g><path d="M1200.25 726.8H450V753.6H1200.25V726.8Z" fill="#36393a" opacity="1" stroke-width="4" stroke="#000000"></path></g></svg>